<svg xmlns="http://www.w3.org/2000/svg" xmlns:xlink="http://www.w3.org/1999/xlink" contentStyleType="text/css" data-diagram-type="CLASS" height="378px" preserveAspectRatio="none" style="width:822px;height:378px;background:#FFFFFF;" version="1.1" viewBox="0 0 822 378" width="822px" zoomAndPan="magnify"><defs/><g><g class="entity" data-entity="Almacen" data-source-line="1" data-uid="ent0002" id="entity_Almacen"><rect fill="#F1F1F1" height="36.2969" rx="2.5" ry="2.5" style="stroke:#181818;stroke-width:0.5;" width="182.6768" x="336.5" y="7"/><text fill="#000000" font-family="sans-serif" font-size="14" lengthAdjust="spacing" textLength="168.6768" x="343.5" y="21.9951">Almacen : BaseDeDatos</text><line style="stroke:#181818;stroke-width:0.5;" x1="337.5" x2="518.1768" y1="27.2969" y2="27.2969"/></g><g class="entity" data-entity="Item" data-source-line="2" data-uid="ent0003" id="entity_Item"><rect fill="#F1F1F1" height="36.2969" rx="2.5" ry="2.5" style="stroke:#181818;stroke-width:0.5;" width="97.9727" x="468" y="103"/><text fill="#000000" font-family="sans-serif" font-size="14" lengthAdjust="spacing" textLength="83.9727" x="475" y="117.9951">Item : Tabla</text><line style="stroke:#181818;stroke-width:0.5;" x1="469" x2="564.9727" y1="123.2969" y2="123.2969"/></g><g class="entity" data-entity="NombreItem" data-source-line="3" data-uid="ent0004" id="entity_NombreItem"><rect fill="#F1F1F1" height="60.8906" rx="2.5" ry="2.5" style="stroke:#181818;stroke-width:0.5;" width="132.9932" x="369.5" y="207"/><text fill="#000000" font-family="sans-serif" font-size="14" lengthAdjust="spacing" textLength="118.9932" x="376.5" y="221.9951">Nombre : Campo</text><line style="stroke:#181818;stroke-width:0.5;" x1="370.5" x2="501.4932" y1="227.2969" y2="227.2969"/><text fill="#000000" font-family="sans-serif" font-size="14" lengthAdjust="spacing" textLength="102.3682" x="375.5" y="244.292">PrimaryKey: Si</text><text fill="#000000" font-family="sans-serif" font-size="14" lengthAdjust="spacing" textLength="80.8418" x="375.5" y="260.5889">Tipo: String</text></g><g class="entity" data-entity="StockItem" data-source-line="7" data-uid="ent0005" id="entity_StockItem"><rect fill="#F1F1F1" height="60.8906" rx="2.5" ry="2.5" style="stroke:#181818;stroke-width:0.5;" width="120.6299" x="537.5" y="207"/><text fill="#000000" font-family="sans-serif" font-size="14" lengthAdjust="spacing" textLength="101.8076" x="546.9111" y="221.9951">Stock : Campo</text><line style="stroke:#181818;stroke-width:0.5;" x1="538.5" x2="657.1299" y1="227.2969" y2="227.2969"/><text fill="#000000" font-family="sans-serif" font-size="14" lengthAdjust="spacing" textLength="108.6299" x="543.5" y="244.292">PrimaryKey: No</text><text fill="#000000" font-family="sans-serif" font-size="14" lengthAdjust="spacing" textLength="57.5518" x="543.5" y="260.5889">Tipo: Int</text></g><g class="entity" data-entity="Constraint" data-source-line="11" data-uid="ent0006" id="entity_Constraint"><rect fill="#F1F1F1" height="36.2969" rx="2.5" ry="2.5" style="stroke:#181818;stroke-width:0.5;" width="196.7178" x="238.5" y="336"/><text fill="#000000" font-family="sans-serif" font-size="14" lengthAdjust="spacing" textLength="182.7178" x="245.5" y="350.9951">Solo positivos : Constraint</text><line style="stroke:#181818;stroke-width:0.5;" x1="239.5" x2="434.2178" y1="356.2969" y2="356.2969"/></g><g class="entity" data-entity="Pedido" data-source-line="12" data-uid="ent0007" id="entity_Pedido"><rect fill="#F1F1F1" height="36.2969" rx="2.5" ry="2.5" style="stroke:#181818;stroke-width:0.5;" width="113.3877" x="201.5" y="103"/><text fill="#000000" font-family="sans-serif" font-size="14" lengthAdjust="spacing" textLength="99.3877" x="208.5" y="117.9951">Pedido : Tabla</text><line style="stroke:#181818;stroke-width:0.5;" x1="202.5" x2="313.8877" y1="123.2969" y2="123.2969"/></g><g class="entity" data-entity="ItemPedido" data-source-line="13" data-uid="ent0008" id="entity_ItemPedido"><rect fill="#F1F1F1" height="77.1875" rx="2.5" ry="2.5" style="stroke:#181818;stroke-width:0.5;" width="151.9043" x="182" y="199"/><text fill="#000000" font-family="sans-serif" font-size="14" lengthAdjust="spacing" textLength="124.2021" x="195.8511" y="213.9951">Item : ForeingKey</text><line style="stroke:#181818;stroke-width:0.5;" x1="183" x2="332.9043" y1="219.2969" y2="219.2969"/><text fill="#000000" font-family="sans-serif" font-size="14" lengthAdjust="spacing" textLength="102.3682" x="188" y="236.292">PrimaryKey: Si</text><text fill="#000000" font-family="sans-serif" font-size="14" lengthAdjust="spacing" textLength="80.8418" x="188" y="252.5889">Tipo: String</text><text fill="#000000" font-family="sans-serif" font-size="14" lengthAdjust="spacing" textLength="139.9043" x="188" y="268.8857">Tabla: Item.Nombre</text></g><g class="entity" data-entity="CantidadPedido" data-source-line="18" data-uid="ent0009" id="entity_CantidadPedido"><rect fill="#F1F1F1" height="60.8906" rx="2.5" ry="2.5" style="stroke:#181818;stroke-width:0.5;" width="140.0205" x="7" y="207"/><text fill="#000000" font-family="sans-serif" font-size="14" lengthAdjust="spacing" textLength="126.0205" x="14" y="221.9951">Cantidad : Campo</text><line style="stroke:#181818;stroke-width:0.5;" x1="8" x2="146.0205" y1="227.2969" y2="227.2969"/><text fill="#000000" font-family="sans-serif" font-size="14" lengthAdjust="spacing" textLength="108.6299" x="13" y="244.292">PrimaryKey: No</text><text fill="#000000" font-family="sans-serif" font-size="14" lengthAdjust="spacing" textLength="57.5518" x="13" y="260.5889">Tipo: Int</text></g><g class="entity" data-entity="Vista" data-source-line="22" data-uid="ent0010" id="entity_Vista"><rect fill="#F1F1F1" height="36.2969" rx="2.5" ry="2.5" style="stroke:#181818;stroke-width:0.5;" width="122.8418" x="693.5" y="219.5"/><text fill="#000000" font-family="sans-serif" font-size="14" lengthAdjust="spacing" textLength="108.8418" x="700.5" y="234.4951">SinStock : Vista</text><line style="stroke:#181818;stroke-width:0.5;" x1="694.5" x2="815.3418" y1="239.7969" y2="239.7969"/></g><g class="entity" data-entity="Usuario" data-source-line="23" data-uid="ent0011" id="entity_Usuario"><rect fill="#F1F1F1" height="36.2969" rx="2.5" ry="2.5" style="stroke:#181818;stroke-width:0.5;" width="67.2041" x="721.5" y="7"/><text fill="#000000" font-family="sans-serif" font-size="14" lengthAdjust="spacing" textLength="53.2041" x="728.5" y="21.9951">Usuario</text><line style="stroke:#181818;stroke-width:0.5;" x1="722.5" x2="787.7041" y1="27.2969" y2="27.2969"/></g><g class="entity" data-entity="Gestor" data-source-line="24" data-uid="ent0012" id="entity_Gestor"><rect fill="#F1F1F1" height="36.2969" rx="2.5" ry="2.5" style="stroke:#181818;stroke-width:0.5;" width="96.3662" x="707" y="103"/><text fill="#000000" font-family="sans-serif" font-size="14" lengthAdjust="spacing" textLength="82.3662" x="714" y="117.9951">Gestor : Rol</text><line style="stroke:#181818;stroke-width:0.5;" x1="708" x2="802.3662" y1="123.2969" y2="123.2969"/></g><!--reverse link Almacen to Item--><g class="link" data-entity-1="Almacen" data-entity-2="Item" data-source-line="26" data-uid="lnk13" id="link_Almacen_Item"><path codeLine="26" d="M448.4455,47.5967 C464.5055,64.5567 484.76,85.95 500.78,102.87" fill="none" id="Almacen-backto-Item" style="stroke:#181818;stroke-width:1;"/><polygon fill="#181818" points="444.32,43.24,447.6038,52.5253,447.7579,46.8706,453.4126,47.0247,444.32,43.24" style="stroke:#181818;stroke-width:1;"/></g><!--reverse link Almacen to Pedido--><g class="link" data-entity-1="Almacen" data-entity-2="Pedido" data-source-line="27" data-uid="lnk14" id="link_Almacen_Pedido"><path codeLine="27" d="M391.9599,45.9246 C361.2499,62.9146 319.58,85.95 288.84,102.95" fill="none" id="Almacen-backto-Pedido" style="stroke:#181818;stroke-width:1;"/><polygon fill="#181818" points="397.21,43.02,387.3985,43.8768,392.8349,45.4405,391.2712,50.8769,397.21,43.02" style="stroke:#181818;stroke-width:1;"/></g><!--reverse link Item to StockItem--><g class="link" data-entity-1="Item" data-entity-2="StockItem" data-source-line="29" data-uid="lnk15" id="link_Item_StockItem"><path codeLine="29" d="M532.7659,144.2877 C545.4259,162.1777 561.91,185.49 577.06,206.9" fill="none" id="Item-backto-StockItem" style="stroke:#181818;stroke-width:1;"/><polygon fill="#181818" points="529.3,139.39,531.2337,149.0472,532.1883,143.4714,537.764,144.426,529.3,139.39" style="stroke:#181818;stroke-width:1;"/></g><!--reverse link Item to NombreItem--><g class="link" data-entity-1="Item" data-entity-2="NombreItem" data-source-line="30" data-uid="lnk16" id="link_Item_NombreItem"><path codeLine="30" d="M501.2341,144.2877 C488.5741,162.1777 472.09,185.49 456.94,206.9" fill="none" id="Item-backto-NombreItem" style="stroke:#181818;stroke-width:1;"/><polygon fill="#181818" points="504.7,139.39,496.236,144.426,501.8117,143.4714,502.7663,149.0472,504.7,139.39" style="stroke:#181818;stroke-width:1;"/></g><!--reverse link Item to Vista--><g class="link" data-entity-1="Item" data-entity-2="Vista" data-source-line="31" data-uid="lnk17" id="link_Item_Vista"><path codeLine="31" d="M557.7768,141.6212 C602.7168,163.2412 674.41,197.73 719.43,219.39" fill="none" id="Item-backto-Vista" style="stroke:#181818;stroke-width:1;"/><polygon fill="#181818" points="552.37,139.02,558.7462,146.5263,556.8757,141.1876,562.2144,139.3172,552.37,139.02" style="stroke:#181818;stroke-width:1;"/></g><!--reverse link StockItem to Constraint--><g class="link" data-entity-1="StockItem" data-entity-2="Constraint" data-source-line="32" data-uid="lnk18" id="link_StockItem_Constraint"><path codeLine="32" d="M531.816,270.614 C526.006,273.334 525.62,273.47 520,276 C472.23,297.52 416.67,320.63 379.42,335.85" fill="none" id="StockItem-backto-Constraint" style="stroke:#181818;stroke-width:1;"/><polygon fill="#181818" points="537.25,268.07,527.403,268.2633,532.7217,270.19,530.795,275.5086,537.25,268.07" style="stroke:#181818;stroke-width:1;"/></g><!--reverse link Pedido to ItemPedido--><g class="link" data-entity-1="Pedido" data-entity-2="ItemPedido" data-source-line="34" data-uid="lnk19" id="link_Pedido_ItemPedido"><path codeLine="34" d="M258,145.39 C258,161.03 258,178.55 258,198.52" fill="none" id="Pedido-backto-ItemPedido" style="stroke:#181818;stroke-width:1;"/><polygon fill="#181818" points="258,139.39,254,148.39,258,144.39,262,148.39,258,139.39" style="stroke:#181818;stroke-width:1;"/></g><!--reverse link Pedido to CantidadPedido--><g class="link" data-entity-1="Pedido" data-entity-2="CantidadPedido" data-source-line="35" data-uid="lnk20" id="link_Pedido_CantidadPedido"><path codeLine="35" d="M225.83,142.3486 C197.53,160.2586 157.67,185.47 123.64,206.99" fill="none" id="Pedido-backto-CantidadPedido" style="stroke:#181818;stroke-width:1;"/><polygon fill="#181818" points="230.9,139.14,221.1559,140.5729,226.675,141.8138,225.4341,147.3329,230.9,139.14" style="stroke:#181818;stroke-width:1;"/></g><!--reverse link CantidadPedido to Constraint--><g class="link" data-entity-1="CantidadPedido" data-entity-2="Constraint" data-source-line="36" data-uid="lnk21" id="link_CantidadPedido_Constraint"><path codeLine="36" d="M149.7815,270.5573 C198.6915,292.0873 257.66,318.06 298.23,335.93" fill="none" id="CantidadPedido-backto-Constraint" style="stroke:#181818;stroke-width:1;"/><polygon fill="#181818" points="144.29,268.14,150.9157,275.427,148.8662,270.1544,154.1388,268.105,144.29,268.14" style="stroke:#181818;stroke-width:1;"/></g><!--reverse link Usuario to Gestor--><g class="link" data-entity-1="Usuario" data-entity-2="Gestor" data-source-line="38" data-uid="lnk22" id="link_Usuario_Gestor"><path codeLine="38" d="M755,49.24 C755,66.2 755,85.95 755,102.87" fill="none" id="Usuario-backto-Gestor" style="stroke:#181818;stroke-width:1;"/><polygon fill="#181818" points="755,43.24,751,52.24,755,48.24,759,52.24,755,43.24" style="stroke:#181818;stroke-width:1;"/></g><!--reverse link Gestor to Vista--><g class="link" data-entity-1="Gestor" data-entity-2="Vista" data-source-line="39" data-uid="lnk23" id="link_Gestor_Vista"><path codeLine="39" d="M755,145.39 C755,167.04 755,197.77 755,219.32" fill="none" id="Gestor-backto-Vista" style="stroke:#181818;stroke-width:1;"/><polygon fill="#181818" points="755,139.39,751,148.39,755,144.39,759,148.39,755,139.39" style="stroke:#181818;stroke-width:1;"/></g><!--SRC=[VPB1JiCm38RlUOfez_405HVO19gGfeaDxcuR8KCJLub1cX3lJkgaQSk0M_Fvpn__Tgb-DGthrKrdeJ5EL_eMWjcQBJ25bOQWSqLHLkxOs2WxGTs120PGgdkojJUnlW7RazGJ6bIVwk3HWZy_c7EbZwXEs5FyO8_kHNqLaoDJyxRm479fiQTiiNCylqyTwPu2CdvG68p81VQ0ZiLjEfOh1zDYIujS2VtCVKVUn6xZyoLy4luVJcmhaL-bWSpwtO1ZRA5TH1xXR-v_vKOtZkuP0wSOyZLAdi8xU9n2tPl0vAF-aJfH9w3K-3zShzTfmNEG9wDa90CewvdGjFM9fLQAMDXi5oelONmpFpEZovcevV72BeSLddFblAMPRm00]--></g></svg>